# xmcd CD database file
#
# Track frame offsets:
#	150
#	25522
#	48308
#	62223
#	82488
#	103431
#	133938
#	156602
#	179370
#	198820
#
# Disc length: 2965 seconds
#
# Revision: 0
# Processed by: cddbd v1.5.2PL0 Copyright (c) Steve Scherf et al.
# Submitted via: CDex 1.70beta2
#
DISCID=940b930a
DTITLE=Emma Salokoski and Ilmiliekki Quartet - Vi sålde våra hemman
DYEAR=2009
DGENRE=Jazz
TTITLE0=Får jag lämna några blommor
TTITLE1=Vi sålde våra hemman (Amerikavisan)
TTITLE2=Akvarell
TTITLE3=Den höga himlen
TTITLE4=En fången fågel
TTITLE5=Kling klang klockan slår
TTITLE6=Jag unnar dig ändå allt gott
TTITLE7=Sollerö långdans
TTITLE8=Lilla vän
TTITLE9=Vyssan lull
EXTD=YEAR: 2009
EXTT0=
EXTT1=
EXTT2=
EXTT3=
EXTT4=
EXTT5=
EXTT6=
EXTT7=
EXTT8=
EXTT9=
PLAYORDER=
